<svg width="153" height="22" viewBox="0 0 153 22" fill="none" xmlns="http://www.w3.org/2000/svg">
<path d="M12.3644 6.28351H7.09424V15.7165H12.3644V6.28351Z" fill="#F16621"/>
<path d="M7.44529 11.0001C7.44529 9.08355 8.34966 7.38258 9.73734 6.28356C8.71606 5.48356 7.42774 5.00006 6.0225 5.00006C2.69355 5.00006 0 7.68355 0 11.0001C0 14.3165 2.69355 17 6.0225 17C7.42774 17 8.71606 16.5165 9.73734 15.7165C8.34766 14.6331 7.44529 12.9166 7.44529 11.0001Z" fill="#E71B25"/>
<path d="M19.4746 11C19.4746 14.3164 16.7811 17 13.4522 17C12.0469 17 10.7586 16.5164 9.7373 15.7164C11.1426 14.6155 12.0294 12.9165 12.0294 11C12.0294 9.08349 11.125 7.38252 9.7373 6.2835C10.7567 5.48349 12.045 5 13.4502 5C16.7811 5 19.4746 7.70097 19.4746 11Z" fill="#F99F1B"/>
<path d="M36.5242 15.8558H33.9961L35.5774 6.17554H38.1054L36.5242 15.8558Z" fill="#242629"/>
<path d="M45.6893 6.41213C45.1907 6.21626 44.3997 6 43.4217 6C40.9251 6 39.1669 7.3181 39.1561 9.20258C39.1354 10.5929 40.4149 11.3652 41.3719 11.8288C42.35 12.3025 42.6825 12.6117 42.6825 13.0339C42.6726 13.6825 41.8921 13.9814 41.1643 13.9814C40.1549 13.9814 39.6141 13.8273 38.7921 13.4665L38.4593 13.3118L38.1055 15.4848C38.6984 15.7523 39.7909 15.9896 40.9251 16C43.5778 16 45.3049 14.7023 45.3253 12.6941C45.3354 11.5921 44.6598 10.7477 43.2032 10.0578C42.3189 9.61484 41.7774 9.31618 41.7774 8.86299C41.7877 8.451 42.2354 8.02902 43.2336 8.02902C44.0555 8.00835 44.6594 8.20394 45.1169 8.39967L45.3455 8.50246L45.6893 6.41213Z" fill="#242629"/>
<path d="M49.0492 12.4264C49.2574 11.8703 50.0586 9.71797 50.0586 9.71797C50.0481 9.73864 50.2664 9.15159 50.3912 8.7912L50.5679 9.62531C50.5679 9.62531 51.0466 11.9424 51.1506 12.4264C50.7555 12.4264 49.5486 12.4264 49.0492 12.4264ZM52.17 6.17554H50.2144C49.6114 6.17554 49.1532 6.35046 48.893 6.97871L45.1377 15.8557H47.7904C47.7904 15.8557 48.2272 14.6609 48.321 14.4036C48.612 14.4036 51.1926 14.4036 51.567 14.4036C51.6396 14.7435 51.8687 15.8557 51.8687 15.8557H54.2096L52.17 6.17554Z" fill="#242629"/>
<path d="M31.8845 6.17554L29.4085 12.7765L29.138 11.4378C28.6802 9.89303 27.2446 8.21468 25.6426 7.38016L27.9104 15.8455H30.5839L34.5578 6.17554H31.8845Z" fill="#242629"/>
<path d="M27.1092 6.17554H23.0416L23 6.37113C26.173 7.17444 28.2744 9.1108 29.1378 11.4382L28.2535 6.98925C28.1079 6.37099 27.6606 6.19593 27.1092 6.17554Z" fill="#242629"/>
<path d="M63.9813 12.9053C63.5072 13.3276 62.8907 13.5119 61.9147 13.5119H61.5093V8.46556H61.9147C62.8907 8.46556 63.4827 8.63766 63.9813 9.08273C64.504 9.54113 64.8181 10.2514 64.8181 10.9825C64.8181 11.715 64.504 12.4471 63.9813 12.9053ZM62.2171 7.17261H60V14.8038H62.2053C63.3781 14.8038 64.2251 14.5311 64.9685 13.9228C65.8517 13.2024 66.3744 12.1166 66.3744 10.9935C66.3744 8.74143 64.6667 7.17261 62.2171 7.17261Z" fill="#242629"/>
<path d="M67.0688 14.8038H68.5792V7.17261H67.0688V14.8038Z" fill="#242629"/>
<path d="M72.2732 10.1008C71.3671 9.7703 71.1004 9.55229 71.1004 9.13999C71.1004 8.65939 71.5751 8.29415 72.2257 8.29415C72.6785 8.29415 73.0503 8.47735 73.4439 8.91219L74.2343 7.89232C73.5847 7.33249 72.8076 7.04626 71.9585 7.04626C70.5884 7.04626 69.5436 7.98393 69.5436 9.23288C69.5436 10.2842 70.03 10.8225 71.4487 11.3256C72.0401 11.5312 72.3409 11.6681 72.4929 11.7603C72.7948 11.9545 72.9457 12.2294 72.9457 12.5499C72.9457 13.1682 72.4471 13.6263 71.7729 13.6263C71.0524 13.6263 70.4721 13.2712 70.1244 12.6085L69.1489 13.5344C69.8444 14.5411 70.6807 14.9872 71.8295 14.9872C73.3996 14.9872 74.5004 13.9587 74.5004 12.4814C74.5004 11.269 73.9916 10.7201 72.2732 10.1008Z" fill="#242629"/>
<path d="M74.9771 10.9934C74.9771 13.2365 76.7643 14.9758 79.0645 14.9758C79.7147 14.9758 80.2715 14.8498 80.9584 14.531V12.7788C80.3541 13.3744 79.8197 13.6146 79.1344 13.6146C77.6133 13.6146 76.5338 12.5277 76.5338 10.9824C76.5338 9.51723 77.6475 8.36147 79.0645 8.36147C79.7851 8.36147 80.3301 8.61482 80.9584 9.22012V7.46876C80.2949 7.13728 79.7499 7 79.1003 7C76.8117 7 74.9771 8.77451 74.9771 10.9934Z" fill="#242629"/>
<path d="M92.9349 12.2985L90.8699 7.17261H89.2197L92.5056 14.9996H93.3184L96.664 7.17261H95.0267L92.9349 12.2985Z" fill="#242629"/>
<path d="M97.3472 14.8038H101.631V13.5119H98.8565V11.452H101.529V10.1594H98.8565V8.46556H101.631V7.17261H97.3472V14.8038Z" fill="#242629"/>
<path d="M104.581 10.6859H104.14V8.37461H104.605C105.546 8.37461 106.057 8.76299 106.057 9.50568C106.057 10.2729 105.546 10.6859 104.581 10.6859ZM107.612 9.42553C107.612 7.99688 106.613 7.17261 104.871 7.17261H102.631V14.8038H104.14V11.7382H104.336L106.428 14.8038H108.285L105.847 11.5889C106.985 11.3609 107.612 10.594 107.612 9.42553Z" fill="#242629"/>
<path d="M108.289 7.55089H108.262V7.3756H108.292C108.372 7.3756 108.413 7.4041 108.413 7.46185C108.413 7.52121 108.371 7.55089 108.289 7.55089ZM108.576 7.45939C108.576 7.32564 108.483 7.2525 108.318 7.2525H108.1V7.92326H108.262V7.66311L108.453 7.92326H108.651L108.427 7.64665C108.523 7.62124 108.576 7.5525 108.576 7.45939Z" fill="#242629"/>
<path d="M108.348 8.06667C108.088 8.06667 107.876 7.85336 107.876 7.58722C107.876 7.32012 108.085 7.10692 108.348 7.10692C108.607 7.10692 108.818 7.32502 108.818 7.58722C108.818 7.85112 108.607 8.06667 108.348 8.06667ZM108.35 7.00165C108.02 7.00165 107.758 7.26161 107.758 7.58637C107.758 7.91092 108.023 8.17118 108.35 8.17118C108.672 8.17118 108.936 7.90813 108.936 7.58637C108.936 7.2662 108.672 7.00165 108.35 7.00165Z" fill="#242629"/>
<g filter="url(#filter0_i_2850_14730)">
<path d="M89.295 11C89.295 13.2092 87.5067 15 85.3003 15C83.0939 15 81.3057 13.2092 81.3057 11C81.3057 8.79086 83.0939 7 85.3003 7C87.5067 7 89.295 8.79086 89.295 11Z" fill="url(#paint0_linear_2850_14730)"/>
</g>
<path d="M115.938 6.00104L114 10.4452H115.262L115.62 9.55528H117.698L118.054 10.4452H119.344L117.408 6.00104H115.938ZM116.655 7.03533L117.289 8.59044H116.02L116.655 7.03533Z" fill="#242629"/>
<path d="M119.476 10.4442V6L121.269 6.00657L122.312 8.87189L123.329 6H125.108V10.4442H123.982V7.16952L122.787 10.4442H121.8L120.603 7.16952V10.4442H119.476Z" fill="#242629"/>
<path d="M125.879 10.4442V6H129.555V6.99409H127.017V7.75428H129.495V8.6899H127.017V9.47932H129.555V10.4442H125.879Z" fill="#242629"/>
<path d="M130.207 6.00073V10.4449H131.333V8.86606H131.808L133.158 10.4449H134.534L133.052 8.80758C133.661 8.75696 134.288 8.24201 134.288 7.44254C134.288 6.50733 133.544 6.00073 132.713 6.00073H130.207ZM131.333 6.99482H132.621C132.93 6.99482 133.154 7.23314 133.154 7.46263C133.154 7.75789 132.863 7.93044 132.637 7.93044H131.333V6.99482Z" fill="#242629"/>
<path d="M135.898 10.4442H134.748V6H135.898V10.4442Z" fill="#242629"/>
<path d="M138.625 10.4442H138.377C137.176 10.4442 136.447 9.51076 136.447 8.24036C136.447 6.93858 137.168 6 138.684 6H139.929V7.05257H138.639C138.023 7.05257 137.588 7.52656 137.588 8.25133C137.588 9.112 138.085 9.47348 138.803 9.47348H139.1L138.625 10.4442Z" fill="#242629"/>
<path d="M141.076 6.00073L139.138 10.4449H140.4L140.757 9.55498H142.836L143.192 10.4449H144.481L142.545 6.00073H141.076ZM141.793 7.03502L142.427 8.59013H141.158L141.793 7.03502Z" fill="#242629"/>
<path d="M144.613 10.4442V6H146.044L147.873 8.79223V6H149V10.4442H147.614L145.739 7.57885V10.4442H144.613Z" fill="#242629"/>
<path d="M122.204 15.9993V11.5551H125.879V12.5492H123.342V13.3094H125.82V14.245H123.342V15.0345H125.879V15.9993H122.204Z" fill="#242629"/>
<path d="M140.213 15.9993V11.5551H143.889V12.5492H141.352V13.3094H143.818V14.245H141.352V15.0345H143.889V15.9993H140.213Z" fill="#242629"/>
<path d="M126.022 15.9993L127.812 13.8046L125.98 11.5551H127.399L128.49 12.9458L129.585 11.5551H130.949L129.141 13.7772L130.933 15.9993H129.515L128.455 14.6306L127.421 15.9993H126.022Z" fill="#242629"/>
<path d="M131.066 11.5557V15.9999H132.223V14.5965H133.408C134.411 14.5965 135.171 14.0715 135.171 13.0505C135.171 12.2047 134.575 11.5557 133.555 11.5557H131.066ZM132.223 12.5608H133.471C133.795 12.5608 134.027 12.7568 134.027 13.0724C134.027 13.369 133.796 13.5841 133.468 13.5841H132.223V12.5608Z" fill="#242629"/>
<path d="M135.661 11.5551V15.9993H136.787V14.4204H137.261L138.612 15.9993H139.989L138.506 14.362C139.114 14.3113 139.742 13.7964 139.742 12.9969C139.742 12.0617 138.998 11.5551 138.168 11.5551H135.661ZM136.787 12.5492H138.075C138.383 12.5492 138.608 12.7875 138.608 13.017C138.608 13.3123 138.317 13.4849 138.092 13.4849H136.787V12.5492Z" fill="#242629"/>
<path d="M144.41 15.9993V15.0345H146.665C146.998 15.0345 147.143 14.8567 147.143 14.6617C147.143 14.4749 146.999 14.286 146.665 14.286H145.646C144.761 14.286 144.268 13.7538 144.268 12.9549C144.268 12.2423 144.719 11.5551 146.035 11.5551H148.228L147.754 12.5551H145.857C145.495 12.5551 145.383 12.7427 145.383 12.922C145.383 13.1062 145.521 13.3094 145.798 13.3094H146.865C147.852 13.3094 148.281 13.8617 148.281 14.5849C148.281 15.3624 147.803 15.9993 146.811 15.9993H144.41Z" fill="#242629"/>
<path d="M148.544 15.9993V15.0345H150.799C151.132 15.0345 151.277 14.8567 151.277 14.6617C151.277 14.4749 151.132 14.286 150.799 14.286H149.78C148.895 14.286 148.402 13.7538 148.402 12.9549C148.402 12.2423 148.853 11.5551 150.169 11.5551H152.363L151.888 12.5551H149.991C149.628 12.5551 149.517 12.7427 149.517 12.922C149.517 13.1062 149.655 13.3094 149.932 13.3094H150.999C151.986 13.3094 152.414 13.8617 152.414 14.5849C152.414 15.3624 151.937 15.9993 150.945 15.9993H148.544Z" fill="#242629"/>
<defs>
<filter id="filter0_i_2850_14730" x="81.3057" y="7" width="9.98926" height="10" filterUnits="userSpaceOnUse" color-interpolation-filters="sRGB">
<feFlood flood-opacity="0" result="BackgroundImageFix"/>
<feBlend mode="normal" in="SourceGraphic" in2="BackgroundImageFix" result="shape"/>
<feColorMatrix in="SourceAlpha" type="matrix" values="0 0 0 0 0 0 0 0 0 0 0 0 0 0 0 0 0 0 127 0" result="hardAlpha"/>
<feOffset dx="2" dy="2"/>
<feGaussianBlur stdDeviation="1"/>
<feComposite in2="hardAlpha" operator="arithmetic" k2="-1" k3="1"/>
<feColorMatrix type="matrix" values="0 0 0 0 0 0 0 0 0 0 0 0 0 0 0 0 0 0 0.2 0"/>
<feBlend mode="multiply" in2="shape" result="effect1_innerShadow_2850_14730"/>
</filter>
<linearGradient id="paint0_linear_2850_14730" x1="81.3057" y1="7" x2="89.3057" y2="14.9897" gradientUnits="userSpaceOnUse">
<stop offset="0.157439" stop-color="#D64021"/>
<stop offset="1" stop-color="#EC8F1B"/>
</linearGradient>
</defs>
</svg>
