<svg width="69" height="22" viewBox="0 0 69 22" fill="none" xmlns="http://www.w3.org/2000/svg">
<path d="M25.7463 7H22.0217C21.7668 7 21.5501 7.17898 21.5103 7.42217L20.0039 16.6536C19.974 16.8358 20.1199 17 20.3111 17H22.0892C22.3441 17 22.5609 16.821 22.6006 16.5773L23.0069 14.0874C23.0461 13.8437 23.2634 13.6647 23.5177 13.6647H24.6968C27.1503 13.6647 28.5663 12.5172 28.9361 10.2431C29.1027 9.24825 28.9432 8.46655 28.4612 7.91909C27.9318 7.31794 26.9929 7 25.7463 7ZM26.176 10.3716C25.9723 11.6634 24.9512 11.6634 23.9638 11.6634H23.4017L23.796 9.25088C23.8195 9.10507 23.9502 8.99768 24.1027 8.99768H24.3603C25.0329 8.99768 25.6673 8.99768 25.9952 9.36827C26.1907 9.58936 26.2506 9.91783 26.176 10.3716Z" fill="#253B80"/>
<path d="M36.7168 9.1855H35.0853C34.9463 9.1855 34.8262 9.30836 34.8048 9.47519L34.7326 10.0269L34.6185 9.82692C34.2653 9.20718 33.4776 9 32.6915 9C30.8886 9 29.3487 10.6508 29.0488 12.9666C28.8929 14.1217 29.1146 15.2263 29.6566 15.9966C30.1538 16.7049 30.8652 17 31.7116 17C33.1643 17 33.9698 15.8707 33.9698 15.8707L33.8971 16.4188C33.8697 16.6284 34.0032 16.8163 34.1771 16.8163H35.6467C35.8804 16.8163 36.0776 16.6115 36.1145 16.3327L36.9963 9.5818C37.0242 9.37401 36.8912 9.1855 36.7168 9.1855ZM34.4426 13.0244C34.2852 14.1512 33.5454 14.9077 32.6018 14.9077C32.1281 14.9077 31.7494 14.724 31.5063 14.3759C31.2652 14.0302 31.1735 13.5381 31.2503 12.9901C31.3972 11.8728 32.1495 11.0917 33.0786 11.0917C33.5419 11.0917 33.9185 11.2778 34.1666 11.6289C34.4152 11.9837 34.5139 12.4787 34.4426 13.0244Z" fill="#253B80"/>
<path d="M46.6755 9H44.8043C44.6258 9 44.4581 9.09121 44.3569 9.24382L41.7762 13.1531L40.6823 9.39642C40.6135 9.16138 40.4025 9 40.1637 9H38.325C38.1016 9 37.9463 9.22452 38.0174 9.44086L40.0784 15.6608L38.1408 18.4738C37.9884 18.6954 38.1419 19 38.4052 19H40.274C40.4514 19 40.6174 18.9111 40.7181 18.7614L46.9416 9.5233C47.0905 9.30229 46.9376 9 46.6755 9Z" fill="#253B80"/>
<path d="M52.7466 7H49.0212C48.7669 7 48.5501 7.17898 48.5104 7.42217L47.0039 16.6536C46.974 16.8358 47.1199 17 47.31 17H49.2217C49.3992 17 49.5512 16.8747 49.579 16.7042L50.0065 14.0874C50.0457 13.8437 50.263 13.6647 50.5174 13.6647H51.696C54.1501 13.6647 55.5656 12.5172 55.9359 10.2431C56.1031 9.24825 55.9425 8.46655 55.4605 7.91909C54.9316 7.31794 53.9932 7 52.7466 7ZM53.1763 10.3716C52.9731 11.6634 51.9519 11.6634 50.964 11.6634H50.4024L50.7973 9.25088C50.8207 9.10507 50.9503 8.99768 51.1034 8.99768H51.361C52.0331 8.99768 52.6681 8.99768 52.996 9.36827C53.1915 9.58936 53.2509 9.91783 53.1763 10.3716Z" fill="#179BD7"/>
<path d="M63.7151 9.1855H62.0844C61.9444 9.1855 61.8254 9.30836 61.8044 9.47519L61.7322 10.0269L61.6176 9.82692C61.2644 9.20718 60.4772 9 59.6911 9C57.888 9 56.3486 10.6508 56.0487 12.9666C55.8932 14.1217 56.1139 15.2263 56.656 15.9966C57.1542 16.7049 57.8646 17 58.7111 17C60.1638 17 60.9694 15.8707 60.9694 15.8707L60.8967 16.4188C60.8693 16.6284 61.0028 16.8163 61.1777 16.8163H62.6469C62.8796 16.8163 63.0779 16.6115 63.1142 16.3327L63.9965 9.5818C64.0234 9.37401 63.8899 9.1855 63.7151 9.1855ZM61.4408 13.0244C61.2843 14.1512 60.5435 14.9077 59.5999 14.9077C59.1271 14.9077 58.7474 14.724 58.5043 14.3759C58.2632 14.0302 58.1725 13.5381 58.2482 12.9901C58.3962 11.8728 59.1475 11.0917 60.0767 11.0917C60.54 11.0917 60.9166 11.2778 61.1647 11.6289C61.4143 11.9837 61.513 12.4787 61.4408 13.0244Z" fill="#179BD7"/>
<path d="M65.5843 7.25371L64.004 16.6536C63.9731 16.8358 64.124 17 64.3204 17H65.9091C66.1731 17 66.3972 16.821 66.4377 16.5773L67.996 7.34688C68.0269 7.16475 67.876 7 67.6796 7H65.9006C65.7436 7.00053 65.6085 7.10791 65.5843 7.25371Z" fill="#179BD7"/>
<path d="M4.16989 19L4.43708 17.1105L3.84192 17.0951H1L2.97499 3.15244C2.98112 3.11034 3.00104 3.0711 3.03016 3.04323C3.05928 3.01536 3.09658 3 3.1354 3H7.92728C9.5181 3 10.6159 3.36857 11.1891 4.09605C11.4578 4.43733 11.629 4.79396 11.7117 5.18642C11.7986 5.59822 11.8001 6.09022 11.7153 6.6903L11.7092 6.73409V7.11859L11.9779 7.28809C12.2042 7.42176 12.384 7.57476 12.522 7.74995C12.7519 8.04174 12.9005 8.41258 12.9634 8.85226C13.0282 9.30444 13.0068 9.84252 12.9005 10.4517C12.7779 11.1524 12.5797 11.7627 12.312 12.2621C12.0658 12.7223 11.7521 13.1039 11.3797 13.3997C11.0241 13.6807 10.6016 13.894 10.124 14.0305C9.66114 14.1647 9.13342 14.2324 8.55462 14.2324H8.18169C7.91502 14.2324 7.65601 14.3394 7.45269 14.531C7.24886 14.7267 7.11399 14.994 7.07261 15.2864L7.04451 15.4565L6.57248 18.7867L6.55102 18.909C6.5454 18.9477 6.53569 18.967 6.52139 18.9801C6.50862 18.992 6.49023 19 6.47235 19H4.16989Z" fill="#253B80"/>
<path d="M12.6959 7C12.6815 7.09542 12.665 7.19298 12.6464 7.2932C12.0084 10.6789 9.82559 11.8485 7.03778 11.8485H5.61835C5.27742 11.8485 4.99013 12.1044 4.937 12.452L4.21027 17.2157L4.00447 18.5661C3.96991 18.7942 4.14012 19 4.36294 19H6.88047C7.17859 19 7.43184 18.7761 7.47878 18.4722L7.50354 18.34L7.97754 15.231L8.00797 15.0604C8.05439 14.7555 8.30816 14.5316 8.60628 14.5316H8.9828C11.4219 14.5316 13.3314 13.508 13.8894 10.5462C14.1226 9.30884 14.0019 8.2757 13.385 7.54909C13.1983 7.32999 12.9667 7.1482 12.6959 7Z" fill="#179BD7"/>
<path d="M11.3979 7.19844C11.3099 7.17386 11.2192 7.15152 11.1261 7.1314C11.0326 7.11174 10.9367 7.09431 10.8381 7.07911C10.4928 7.02548 10.1145 7 9.70917 7H6.28804C6.20382 7 6.12378 7.01832 6.05212 7.0514C5.89437 7.12425 5.77711 7.26772 5.74872 7.44337L5.02094 11.8708L5 12C5.04793 11.7086 5.30712 11.4941 5.6147 11.4941H6.8953C9.41042 11.4941 11.3797 10.513 11.9553 7.67489C11.9725 7.59086 11.987 7.50907 12 7.42907C11.8544 7.35488 11.6966 7.29141 11.5268 7.23733C11.4849 7.22392 11.4416 7.21096 11.3979 7.19844Z" fill="#222D65"/>
<path d="M4.97617 7.01737C5.00774 6.8123 5.13818 6.6448 5.31364 6.56027C5.39387 6.52166 5.48238 6.50026 5.57606 6.50026H9.38144C9.83226 6.50026 10.2531 6.53 10.6371 6.59262C10.7469 6.61036 10.8535 6.63071 10.9575 6.65367C11.061 6.67715 11.162 6.70324 11.2598 6.73194C11.3084 6.74655 11.3566 6.76168 11.4037 6.77682C11.5926 6.83996 11.7681 6.91457 11.9301 7.00067C12.1206 5.776 11.9285 4.94215 11.2717 4.1871C10.5476 3.35587 9.24065 3 7.56829 3H2.71324C2.37162 3 2.08022 3.25047 2.02742 3.5912L0.00517018 16.5137C-0.0346848 16.7694 0.160967 17 0.41666 17H3.41406L4.16665 12.1864L4.97617 7.01737Z" fill="#253B80"/>
</svg>
